<svg xmlns="http://www.w3.org/2000/svg">
<symbol viewBox="0 0 15 28" fill="#231F20" id="fb" >
<path d="M11.7035 5.25484C12.7024 5.25484 13.7014 5.25484 14.4006 4.95313C14.8002 4.14856 15 3.04228 15 1.936C14.8002 1.936 14.9001 1.63428 14.8002 1.53371C14.8002 1.33257 14.5005 1.33257 14.5005 1.13142C14.2009 0.930282 14.0011 0.729141 13.8013 0.527999C13.102 0.326857 12.4028 0.226286 11.6036 0.0251435C10.8045 0.0251435 9.70565 -0.0754291 9.00639 0.125713C6.40916 0.125713 5.01066 1.232 3.71204 2.53942C3.71204 2.63999 3.71204 2.74056 3.61215 2.74056C3.01278 4.3497 3.51225 6.36112 3.41236 8.37254C3.51225 8.77483 3.51225 9.37826 3.61215 9.78054C2.61321 10.0823 1.41449 10.1828 0.21577 10.2834C-0.08391 10.5851 0.0159827 11.3897 0.0159827 11.9931C0.115876 12.5965 0.315665 13.0994 0.415558 13.6022C0.615345 13.8034 1.01492 14.0045 1.2147 14.1051C1.3146 14.1051 1.3146 14.2057 1.3146 14.2057C1.81406 14.5074 2.813 14.2057 3.61215 14.3062C3.51225 16.3177 3.91183 18.2285 3.61215 20.0388C3.61215 20.3405 3.91183 20.4411 3.81193 20.8434C3.81193 21.8491 3.71204 22.8548 4.01172 23.5588C3.71204 24.0616 3.51225 24.5645 3.61215 25.3691C3.71204 25.3691 3.71204 25.5702 3.71204 25.6708C3.61215 26.1736 4.3114 25.8719 4.21151 26.3748C4.4113 26.8776 3.81193 26.5759 3.81193 26.8776V27.7828C4.3114 28.0845 5.31033 27.9839 6.10948 27.9839C7.00852 27.5816 8.30714 27.4811 8.9065 26.7771C9.40597 26.9782 9.80554 26.7771 10.1052 26.5759C10.1052 26.2742 10.4049 26.2742 10.305 25.8719C10.305 25.5702 10.1052 25.3691 10.2051 24.9668V22.0502C10.0053 19.7371 10.2051 17.1222 9.90544 14.8091C10.8045 14.7085 11.8034 14.7085 12.5027 14.4068C12.9022 13.904 12.9022 13.2 13.0021 12.496C13.2019 12.2948 13.2019 11.8925 13.2019 11.4902C13.4017 11.2891 13.3018 10.7863 13.3018 10.384C13.2019 9.78054 13.102 9.07654 12.5027 8.97597C11.6036 8.77483 10.5048 9.5794 9.50586 9.27769C9.50586 8.1714 9.20618 6.96455 9.50586 5.85827C10.305 5.65712 11.0043 5.45598 11.7035 5.25484ZM7.90757 10.0823C8.00746 10.384 8.20725 10.5851 8.30714 10.7863C8.40704 10.7863 8.50693 10.7863 8.50693 10.8868C9.70565 10.9874 10.7046 10.7863 11.6036 10.5851C11.6036 11.5908 11.3039 12.2948 11.1042 13.0994C10.4049 13.0994 9.60575 13.4011 9.10629 13.3005C8.80661 13.5017 8.70671 13.8034 8.50693 14.0045C8.50693 14.4068 8.60682 14.5074 8.50693 14.8091C8.30714 14.9097 8.40704 15.4125 8.30714 15.6137V17.1222C8.40704 17.4239 8.20724 17.4239 8.20724 17.6251V21.1451C8.10735 21.4468 8.30714 21.4468 8.30714 21.6479V24.6651C8.40704 24.9668 8.20725 25.4696 8.40703 25.5702C8.30714 25.9725 8.00746 25.5702 7.60788 25.6708C7.10842 25.7713 6.70884 26.0731 6.10948 26.0731C6.20938 25.6708 6.40916 25.4696 6.40916 24.9668C6.40916 24.5645 6.00959 24.6651 5.9097 24.4639C6.10948 23.8605 6.50906 23.3576 6.60895 22.6536C6.80874 22.1508 7.30821 21.3462 6.90863 20.8434C6.40916 20.7428 6.40916 21.1451 6.10948 21.2456C6.10948 21.3462 6.10948 21.4468 6.00959 21.4468C6.00959 21.5474 6.00959 21.6479 5.9097 21.6479C5.9097 21.7485 5.70991 21.7485 5.9097 21.6479C5.9097 21.5474 5.9097 21.4468 6.00959 21.4468C6.00959 21.3462 6.00959 21.2456 6.10948 21.2456V20.9439C6.50906 20.3405 6.80874 19.7371 6.90863 18.9325C7.10842 18.6308 7.20831 18.2285 7.3082 17.9268C7.50799 17.6251 7.60789 17.0217 7.4081 16.7199C6.90863 16.7199 6.60895 17.0217 6.50906 17.4239C6.20938 17.2228 6.70884 17.0217 6.60895 16.7199C6.70884 16.5188 6.80874 16.1165 6.90863 15.9154C7.10842 15.5131 7.50799 14.6079 6.90863 14.3062C6.50906 14.3062 6.30927 14.5074 6.20938 14.8091C6.00959 15.0102 5.8098 15.2114 5.70991 15.5131C5.31034 15.4125 5.61002 14.8091 5.51012 14.4068C5.41023 13.904 5.61002 13.5017 5.51012 13.2C4.91076 12.3954 3.51225 13.0994 2.31353 12.8982C2.21364 12.5965 2.11375 11.8925 2.21364 11.6914C3.21257 11.5908 4.71098 11.8925 5.41023 11.4902C5.41023 11.3897 5.41023 11.2891 5.51012 11.2891C5.61002 10.5851 5.21044 10.2834 5.01066 9.88111C5.21044 9.07654 5.01065 7.86969 5.11055 6.86398C5.31033 6.76341 5.41023 6.46169 5.61001 6.26055C5.70991 5.25484 6.30927 4.75199 6.30927 3.74627C6.00959 3.74627 5.70991 3.6457 5.70991 3.94742C5.41023 3.84685 5.31034 4.45027 5.21044 4.14856C5.11055 3.6457 5.41023 3.54513 5.51012 3.14285C6.10948 2.74056 6.70885 2.33828 7.4081 1.936C9.10629 1.73485 12.0032 1.53371 13.5016 2.13714C13.6015 2.74056 13.2019 3.04227 13.3018 3.6457H11.8034C10.7046 3.84684 9.80554 4.3497 8.80661 4.65141C8.60682 4.75198 8.50693 4.95313 8.30714 5.0537C8.30714 5.45598 8.10735 5.65712 8.00746 6.05941C7.70778 7.4674 7.90757 8.67426 7.90757 10.0823Z" />
</symbol>
<symbol viewBox="0 0 23 20" id="twitter" fill="#231F20">
<path
d="M22.9571 4.24243C22.7628 3.83838 22.0826 3.93939 21.5968 3.83838H20.5279C20.6251 3.43434 20.8194 3.23232 21.0138 2.82828C21.1109 2.42424 21.3053 2.12121 21.2081 1.51515C21.3053 1.31313 21.4024 1.11111 21.4996 0.909089C21.5968 0.808079 21.694 0.404041 21.5968 0.202021C21.4996 7.67636e-07 21.3053 0 21.0138 0C20.9166 0 20.8194 0.101009 20.8194 0.101009C20.4308 0.505049 20.0421 1.11111 19.5562 1.51515H19.4591C19.3619 1.51515 19.4591 1.51515 19.3619 1.61616C19.2647 1.71717 19.0704 1.81818 18.9732 1.81818C18.6817 2.0202 18.4874 2.22222 18.0987 2.32323C17.6129 2.12121 16.9327 2.0202 16.2525 1.91919C15.0865 2.0202 14.0176 2.12121 13.3374 2.62626C12.4629 2.92929 11.8799 3.63636 11.2969 4.24243C11.2969 4.54546 11.0054 4.64646 10.9082 4.94949C10.9082 4.94949 10.9082 5.05051 10.811 5.05051C10.811 5.25253 10.7139 5.35354 10.7139 5.55556C10.7139 5.65657 10.9082 5.9596 10.7139 6.06061C9.93651 5.9596 9.25633 5.45455 8.67331 5.05051C7.99313 4.64646 7.21578 4.44444 6.63277 3.93939C5.95259 3.63636 5.36957 3.13131 4.88372 2.62626C4.68939 2.32323 4.39788 2.12121 4.20354 1.71717C3.81487 1.51515 4.00921 0.80808 3.52336 0.80808C3.23185 0.80808 3.23185 1.0101 3.13468 1.21212C3.03751 1.41414 2.74601 1.41414 2.74601 1.71717C2.74601 1.71717 2.74601 1.81818 2.64884 1.81818C2.4545 2.92929 2.16299 3.83838 2.16299 5.15151C2.26016 5.55555 2.4545 5.85858 2.74601 6.16161C2.35733 6.26263 2.06583 6.36364 1.87149 6.66667C1.77432 7.77778 2.26016 8.28283 2.55167 8.9899C2.64884 9.39394 2.94035 9.69697 3.13468 10C3.13468 10.202 3.32902 10.303 3.42619 10.404C3.42619 10.5051 3.52336 10.505 3.52336 10.6061C3.52336 10.7071 3.81487 10.8081 3.62053 10.8081C3.23185 10.9091 2.64884 10.9091 2.35733 11.2121C2.26016 11.5152 2.26016 12.0202 2.35733 12.3232C2.35733 12.5253 2.64884 12.6263 2.64884 12.8283C3.13468 13.2323 3.7177 13.5354 4.20354 13.9394C4.78656 14.1414 5.36957 14.2424 6.04975 14.3434C5.95258 14.6465 5.75825 14.9495 5.46674 15.0505C4.68939 15.4545 3.7177 15.5556 2.84318 15.7576C2.26016 15.7576 1.87149 15.9596 1.28848 15.9596C0.996969 16.0606 0.413953 16.0606 0.219615 16.1616C0.122446 16.2626 0.122445 16.2626 0.0252764 16.3636C-0.0718926 16.7677 0.122447 17.0707 0.413954 17.2727C0.413954 17.5758 0.608293 17.5758 0.802631 17.6768C0.8998 17.8788 1.09414 17.9798 1.1913 18.0808C1.67715 18.5859 2.4545 18.8889 3.03752 19.1919C3.81487 19.3939 4.59222 19.596 5.46674 19.697C6.34126 19.798 7.31295 19.798 8.18747 19.899H9.15916C9.645 20 10.3252 20 11.0054 20C11.1025 19.899 11.2969 19.899 11.4912 19.899C11.9771 19.596 12.6572 19.4949 13.0459 19.1919C13.6289 18.9899 14.0176 18.5859 14.6006 18.2828C15.4751 17.4748 16.4468 16.9697 17.0298 15.8586C17.2242 15.6566 17.4185 15.4545 17.4185 15.1515C17.71 14.9495 17.8072 14.6465 18.0015 14.4444C18.3902 14.0404 18.6817 13.5354 18.9732 13.0303C19.2647 12.5253 19.5562 11.9192 19.8477 11.4141C19.8477 11.0101 20.1393 10.9091 20.1393 10.505C20.3336 10.303 20.3336 9.79798 20.5279 9.59596C20.5279 9.29293 20.5279 9.19192 20.6251 8.9899C20.6251 7.67677 20.6251 6.56566 20.3336 5.55556C20.9166 5.35354 21.4996 5.25252 21.8883 4.94949C22.6656 5.25252 23.1515 4.84849 22.9571 4.24243ZM19.6534 8.28283C19.4591 9.19192 19.0704 9.69697 18.6817 10.303C18.7789 10.7071 18.5845 10.8081 18.5845 11.2121C18.3902 11.5152 18.293 11.9192 18.1959 12.2222C18.0015 12.5253 17.9044 12.8283 17.71 13.1313C17.3214 13.6364 16.9327 14.2424 16.544 14.7475C16.1553 15.3535 15.6695 15.7576 15.2808 16.2626C14.8921 16.7677 14.4063 17.1717 13.9204 17.5758C13.4346 17.7778 13.0459 17.9798 12.6572 18.2828C12.4629 18.3838 12.1714 18.4848 11.9771 18.5859C11.7827 18.6869 11.4912 18.6869 11.2969 18.8889C10.228 18.9899 9.06199 19.0909 7.79879 18.9899C6.8271 18.8889 5.75824 18.7879 4.88372 18.5859C4.0092 18.3838 3.42619 17.8788 2.64884 17.5758C2.84318 17.3737 3.23185 17.3737 3.62053 17.3737C3.62053 17.1717 4.00921 17.3737 4.00921 17.2727C4.30071 17.3737 4.30071 17.1717 4.49505 17.1717C5.07806 16.9697 5.66108 16.8687 6.14692 16.5657C6.43843 16.4646 6.5356 16.1616 6.8271 15.9596C6.8271 15.7576 6.92427 15.6566 7.02144 15.5556C7.02144 15.2525 7.21578 15.1515 7.11861 14.7475C7.21578 14.5455 7.41012 14.4444 7.41012 14.0404C7.31295 13.9394 7.31295 13.7374 7.11861 13.6364C7.11861 13.4343 6.72994 13.5354 6.72994 13.4343C6.43843 13.4343 6.34126 13.4343 6.14692 13.3333C5.95259 13.3333 5.66108 13.4343 5.66108 13.2323C4.88373 13.2323 4.39788 12.8283 3.81487 12.5253C4.20354 12.2222 4.78656 12.1212 5.07806 11.8182C5.56391 11.7172 6.14692 11.7172 6.14692 11.1111C6.14692 10.404 5.36957 10.404 4.88372 10.303C4.10637 9.59596 3.7177 8.58586 3.13468 7.77778C3.32902 7.57576 3.7177 7.57576 3.81487 7.37374C4.30071 7.47475 4.30071 7.07071 4.49505 6.86869C4.49505 6.36364 4.20354 6.26263 3.91203 6.06061C3.62053 5.85859 3.42619 5.55556 3.23185 5.35354C3.23185 4.54545 3.23185 3.63636 3.32902 2.92929C3.42619 2.92929 3.42619 2.92929 3.42619 3.0303C3.62053 3.43434 4.00921 3.83838 4.20354 4.24243C4.68939 4.64647 5.07806 5.15151 5.75825 5.35354C6.24409 5.75758 6.8271 5.9596 7.31295 6.36364C7.89596 6.66667 8.47898 6.9697 8.96482 7.27273C9.645 7.47475 10.0337 7.9798 10.9082 7.87879C11.1025 7.77778 11.2969 7.67677 11.4912 7.57576C11.7827 7.07071 11.394 6.46464 11.5884 5.95959C11.8799 5.25252 12.3657 4.94949 12.8516 4.44444C13.1431 4.24242 13.4346 4.14141 13.6289 3.93939C13.9204 3.83838 14.3091 3.73737 14.6006 3.53535C14.9893 3.53535 15.2808 3.43434 15.5723 3.43434H16.8355C17.0298 3.53535 17.3214 3.53535 17.5157 3.53535C17.71 3.63636 17.9044 3.83838 18.1959 3.93939C18.9732 4.64646 19.4591 5.65656 19.5562 6.9697C19.5562 7.27273 19.6534 7.67677 19.6534 8.28283ZM19.9449 2.62626C19.8477 2.92929 19.7506 3.33333 19.3619 3.43434C19.3619 3.33333 19.2647 3.33333 19.2647 3.23232C19.2647 3.0303 19.4591 3.0303 19.5562 2.92929C19.6534 2.82828 19.7506 2.62626 19.9449 2.62626C19.9449 2.52525 20.0421 2.62626 19.9449 2.62626ZM14.6006 5.65656C14.795 5.75757 14.8921 5.9596 15.0865 6.06061C15.1836 6.26263 15.378 6.36363 15.6695 6.46464C15.6695 6.26262 15.961 6.46465 16.0582 6.26263C16.2525 6.26263 16.2525 6.0606 16.3497 5.95959C16.3497 5.45454 16.2525 4.94949 15.961 4.64646C15.2808 4.14141 14.3091 4.64646 14.6006 5.65656Z" />
</symbol>
<symbol viewBox="" id >

</symbol>
<symbol viewBox="" id >

</symbol>
<symbol viewBox="" id >

</symbol>
<symbol viewBox="" id >

</symbol>
<symbol viewBox="" id >

</symbol>
<symbol viewBox="" id >

</symbol>
<symbol viewBox="" id >

</symbol>
<symbol viewBox="" id >

</symbol>
<symbol viewBox="" id >

</symbol>
<symbol viewBox="" id >

</symbol>
<symbol viewBox="" id >

</symbol>
</svg>
